<svg xmlns="http://www.w3.org/2000/svg" viewBox="0 0 512 512">
  <defs>
    <linearGradient id="bg" x1="0%" y1="0%" x2="100%" y2="100%">
      <stop offset="0%" style="stop-color:#6366f1"/>
      <stop offset="100%" style="stop-color:#8b5cf6"/>
    </linearGradient>
    <linearGradient id="brain" x1="0%" y1="0%" x2="100%" y2="100%">
      <stop offset="0%" style="stop-color:#f0abfc"/>
      <stop offset="100%" style="stop-color:#c4b5fd"/>
    </linearGradient>
  </defs>
  <!-- Background -->
  <rect width="512" height="512" rx="100" fill="url(#bg)"/>
  <!-- Brain icon -->
  <g transform="translate(106, 96) scale(0.6)">
    <path fill="url(#brain)" d="M256 48c-35.3 0-64 28.7-64 64c0 7.4 1.3 14.6 3.6 21.2C163.2 138.5 128 176.7 128 224c0 11.7 2.5 22.8 7 32.8C108.6 267.4 80 302.4 80 344c0 53 43 96 96 96h16v-64H176c-17.7 0-32-14.3-32-32c0-15.2 10.6-27.9 24.8-31.2l21.5-5l-10.2-19.3C173.1 275.1 160 253.1 160 224c0-35.3 28.7-64 64-64h0c0-35.3 28.7-64 64-64h16c35.3 0 64 28.7 64 64c35.3 0 64 28.7 64 64c0 29.1-19.5 53.5-46.1 61.2l-10.2 19.3l21.5 5c14.2 3.3 24.8 16 24.8 31.2c0 17.7-14.3 32-32 32H336v64h16c53 0 96-43 96-96c0-41.6-26.5-77-63.6-90.3c4.5-10 7-21.1 7-32.8c0-47.3-35.2-86.3-80.8-92.1c2.3-6.6 3.6-13.8 3.6-21.2c0-35.3-28.7-64-64-64H256z"/>
  </g>
  <!-- Baby face overlay -->
  <circle cx="256" cy="320" r="80" fill="#fef3c7" opacity="0.9"/>
  <circle cx="230" cy="305" r="12" fill="#1e293b"/>
  <circle cx="282" cy="305" r="12" fill="#1e293b"/>
  <path d="M240 340 Q256 355 272 340" stroke="#1e293b" stroke-width="6" fill="none" stroke-linecap="round"/>
</svg>
